<svg width="54" height="54" viewBox="0 0 54 54" fill="none" xmlns="http://www.w3.org/2000/svg">
<path d="M26.1033 6.31663C26.4701 5.57346 27.5299 5.57346 27.8967 6.31663L33.7201 18.1141C33.8656 18.4089 34.1468 18.6134 34.4721 18.661L47.4962 20.5646C48.3161 20.6845 48.6429 21.6923 48.0493 22.2705L38.6268 31.448C38.3909 31.6778 38.2833 32.0089 38.3389 32.3334L40.5624 45.2976C40.7025 46.1146 39.845 46.7376 39.1114 46.3518L27.4655 40.2273C27.1741 40.074 26.8259 40.074 26.5345 40.2273L14.8886 46.3518C14.155 46.7376 13.2975 46.1146 13.4376 45.2976L15.6611 32.3334C15.7167 32.0089 15.6091 31.6778 15.3732 31.448L5.95068 22.2705C5.35709 21.6923 5.68387 20.6845 6.50378 20.5646L19.5279 18.661C19.8532 18.6134 20.1344 18.4089 20.2799 18.1141L26.1033 6.31663Z" fill="#F2CD01" stroke="#F2CD01" stroke-width="0.6875" stroke-linecap="round" stroke-linejoin="round"/>
</svg>
